<?xml version="1.0" standalone="no"?>
<!DOCTYPE svg PUBLIC "-//W3C//DTD SVG 20010904//EN"
 "http://www.w3.org/TR/2001/REC-SVG-20010904/DTD/svg10.dtd">
<svg version="1.0" xmlns="http://www.w3.org/2000/svg"
 width="260.000000pt" height="62.000000pt" viewBox="0 0 260.000000 62.000000"
 preserveAspectRatio="xMidYMid meet">

<g transform="translate(0.000000,62.000000) scale(0.100000,-0.100000)"
fill="#000000" stroke="none">
<path d="M1655 554 c-55 -19 -85 -56 -85 -103 0 -56 30 -88 98 -106 82 -23
102 -33 102 -49 0 -38 -68 -42 -134 -9 -27 14 -30 14 -58 -14 l-29 -30 23 -15
c62 -40 183 -51 238 -23 60 31 79 117 36 160 -13 13 -50 31 -82 40 -74 21
-105 40 -98 60 7 18 72 20 109 3 22 -10 29 -8 55 17 27 26 28 29 12 41 -18 13
-118 44 -136 43 -6 0 -29 -7 -51 -15z"/>
<path d="M738 373 l-105 -178 51 -3 c28 -2 52 0 53 5 2 4 31 55 66 113 l62
105 3 -112 3 -113 57 0 57 1 65 114 c36 63 68 115 73 115 4 0 7 -52 7 -115 l0
-115 45 0 45 0 0 180 0 180 -67 -1 c-38 -1 -58 -4 -45 -6 13 -3 22 -12 22 -22
0 -22 -31 -51 -54 -51 -14 0 -15 4 -6 20 6 11 9 20 6 20 -2 0 -25 -36 -51 -80
-26 -44 -51 -83 -56 -86 -5 -3 -9 40 -9 100 l0 106 -59 0 -59 0 -104 -177z"/>
<path d="M1320 370 l0 -180 95 0 95 0 0 40 0 40 -50 0 -50 0 0 140 0 140 -45
0 -45 0 0 -180z"/>
</g>
</svg>
